<?xml version="1.0" encoding="utf-8"?>
<!-- Generator: Adobe Illustrator 27.0.0, SVG Export Plug-In . SVG Version: 6.00 Build 0)  -->
<svg version="1.1" id="Layer_1" xmlns="http://www.w3.org/2000/svg" xmlns:xlink="http://www.w3.org/1999/xlink" x="0px" y="0px"
	 viewBox="0 0 100 100" style="enable-background:new 0 0 100 100;" xml:space="preserve">
<style type="text/css">
	.st0{fill:#E31F26;}
	.st1{fill-rule:evenodd;clip-rule:evenodd;fill:#E31F26;}
</style>
<g>
	<g>
		<g>
			<path class="st0" d="M84.02,83.99h-1.75c-0.34,0-0.49-0.45-0.22-0.68l0.5-0.44c0.43-0.37,0.96-0.57,1.51-0.57h1.75
				c0.34,0,0.49,0.45,0.22,0.68l-0.5,0.43C85.1,83.78,84.57,83.99,84.02,83.99"/>
			<path class="st0" d="M86.31,81.53l-1.75,0.12c-0.33,0.02-0.51-0.42-0.27-0.66l0.47-0.47c0.4-0.4,0.92-0.64,1.47-0.67l1.75-0.12
				c0.34-0.02,0.52,0.42,0.27,0.66l-0.47,0.47C87.37,81.25,86.86,81.49,86.31,81.53"/>
			<path class="st0" d="M88.42,78.91l-1.74,0.24c-0.33,0.05-0.54-0.38-0.31-0.64l0.44-0.5c0.37-0.43,0.87-0.7,1.42-0.78L89.96,77
				c0.33-0.05,0.54,0.38,0.32,0.64l-0.44,0.5C89.46,78.57,88.96,78.84,88.42,78.91"/>
			<path class="st0" d="M90.34,76.16l-1.71,0.36c-0.33,0.07-0.57-0.34-0.36-0.62l0.4-0.53c0.34-0.45,0.82-0.76,1.36-0.87l1.71-0.36
				c0.33-0.07,0.57,0.34,0.36,0.62l-0.4,0.53C91.36,75.74,90.88,76.05,90.34,76.16"/>
			<path class="st0" d="M92.07,73.28l-1.68,0.48c-0.32,0.09-0.59-0.3-0.4-0.59l0.36-0.56c0.31-0.47,0.77-0.81,1.3-0.97l1.68-0.48
				c0.32-0.09,0.59,0.3,0.4,0.59l-0.36,0.56C93.06,72.79,92.6,73.13,92.07,73.28"/>
			<path class="st0" d="M93.59,70.29l-1.64,0.6c-0.32,0.12-0.61-0.26-0.44-0.56l0.32-0.58c0.28-0.49,0.71-0.87,1.23-1.05l1.64-0.6
				c0.32-0.12,0.61,0.26,0.44,0.56l-0.33,0.58C94.55,69.73,94.11,70.1,93.59,70.29"/>
			<path class="st0" d="M94.9,67.19l-1.6,0.72c-0.31,0.14-0.62-0.22-0.48-0.53l0.28-0.6c0.24-0.51,0.65-0.92,1.15-1.14l1.6-0.71
				c0.31-0.14,0.63,0.22,0.48,0.53l-0.28,0.6C95.81,66.57,95.4,66.97,94.9,67.19"/>
			<path class="st0" d="M95.99,64.02l-1.55,0.82c-0.3,0.16-0.64-0.17-0.51-0.49l0.24-0.62c0.21-0.53,0.58-0.96,1.07-1.22l1.55-0.82
				c0.29-0.16,0.64,0.17,0.51,0.49l-0.24,0.62C96.86,63.33,96.48,63.76,95.99,64.02"/>
			<path class="st0" d="M96.86,60.77l-1.49,0.93c-0.28,0.18-0.65-0.13-0.55-0.46l0.2-0.63c0.17-0.54,0.51-1,0.98-1.29l1.48-0.93
				c0.29-0.18,0.65,0.13,0.55,0.46l-0.2,0.63C97.67,60.03,97.33,60.48,96.86,60.77"/>
			<path class="st0" d="M97.5,57.47l-1.42,1.03c-0.27,0.2-0.66-0.08-0.58-0.42l0.15-0.65c0.13-0.55,0.44-1.03,0.89-1.35l1.42-1.03
				c0.27-0.2,0.66,0.08,0.58,0.42l-0.15,0.65C98.26,56.67,97.94,57.15,97.5,57.47"/>
			<path class="st0" d="M97.9,54.14l-1.34,1.12c-0.26,0.22-0.67-0.04-0.61-0.38l0.1-0.65c0.09-0.56,0.37-1.06,0.79-1.41l1.34-1.13
				c0.26-0.21,0.66,0.04,0.61,0.38l-0.1,0.66C98.61,53.29,98.33,53.78,97.9,54.14"/>
			<path class="st0" d="M98.08,50.78L96.82,52c-0.24,0.23-0.66,0.01-0.63-0.33l0.06-0.66c0.05-0.57,0.29-1.08,0.69-1.46l1.26-1.22
				c0.24-0.23,0.67-0.01,0.63,0.34l-0.06,0.66C98.72,49.88,98.47,50.4,98.08,50.78"/>
			<path class="st0" d="M98.01,47.42l-1.17,1.3c-0.23,0.25-0.66,0.06-0.65-0.29l0.01-0.67c0.01-0.57,0.22-1.1,0.59-1.51l1.17-1.3
				c0.22-0.25,0.66-0.06,0.65,0.29l-0.01,0.66C98.59,46.48,98.38,47.02,98.01,47.42"/>
			<path class="st0" d="M97.72,44.08l-1.08,1.38c-0.21,0.27-0.66,0.11-0.67-0.24l-0.03-0.67c-0.03-0.56,0.14-1.11,0.48-1.54
				l1.08-1.38c0.21-0.27,0.65-0.1,0.67,0.24l0.03,0.67C98.23,43.1,98.06,43.64,97.72,44.08"/>
			<path class="st0" d="M97.19,40.76l-0.98,1.45c-0.19,0.28-0.65,0.15-0.69-0.19l-0.08-0.66c-0.07-0.56,0.06-1.12,0.37-1.57
				l0.98-1.45c0.19-0.28,0.65-0.15,0.69,0.19l0.08,0.66C97.63,39.75,97.5,40.31,97.19,40.76"/>
			<path class="st0" d="M96.43,37.49l-0.87,1.51c-0.17,0.29-0.64,0.19-0.7-0.15l-0.13-0.65c-0.11-0.55-0.01-1.12,0.26-1.6l0.87-1.51
				c0.17-0.29,0.64-0.19,0.7,0.15l0.13,0.65C96.8,36.45,96.7,37.01,96.43,37.49"/>
			<path class="st0" d="M95.44,34.28l-0.77,1.58c-0.15,0.3-0.62,0.23-0.71-0.1l-0.17-0.64c-0.15-0.55-0.09-1.12,0.15-1.61l0.77-1.57
				c0.15-0.3,0.62-0.23,0.71,0.1l0.17,0.64C95.74,33.21,95.68,33.78,95.44,34.28"/>
			<path class="st0" d="M94.24,31.14l-0.66,1.62c-0.13,0.31-0.6,0.28-0.71-0.05l-0.22-0.63c-0.19-0.54-0.17-1.11,0.03-1.62
				l0.66-1.62c0.13-0.31,0.61-0.28,0.71,0.05l0.22,0.63C94.45,30.06,94.44,30.63,94.24,31.14"/>
			<path class="st0" d="M92.81,28.1l-0.54,1.67c-0.1,0.32-0.58,0.32-0.71,0l-0.26-0.61c-0.22-0.52-0.25-1.09-0.08-1.61l0.54-1.67
				c0.1-0.32,0.58-0.32,0.72,0l0.26,0.61C92.96,27.01,92.98,27.58,92.81,28.1"/>
			<path class="st0" d="M91.18,25.17l-0.42,1.7c-0.08,0.33-0.56,0.36-0.71,0.05l-0.3-0.6c-0.26-0.5-0.32-1.07-0.19-1.6l0.42-1.7
				c0.08-0.33,0.56-0.36,0.72-0.05l0.3,0.59C91.25,24.07,91.31,24.63,91.18,25.17"/>
			<path class="st0" d="M89.35,22.35l-0.3,1.72c-0.06,0.33-0.53,0.4-0.71,0.1l-0.34-0.57c-0.29-0.49-0.4-1.05-0.3-1.59l0.3-1.72
				c0.06-0.33,0.53-0.4,0.71-0.1l0.34,0.57C89.33,21.25,89.44,21.81,89.35,22.35"/>
			<path class="st0" d="M87.32,19.67l-0.18,1.74c-0.03,0.33-0.5,0.43-0.7,0.15l-0.38-0.54c-0.32-0.46-0.47-1.02-0.41-1.56l0.18-1.74
				c0.04-0.34,0.5-0.44,0.7-0.15l0.38,0.55C87.24,18.57,87.38,19.12,87.32,19.67"/>
			<path class="st0" d="M85.11,17.14l-0.06,1.75c-0.01,0.34-0.47,0.47-0.69,0.2l-0.41-0.52c-0.36-0.44-0.54-0.98-0.52-1.53
				l0.06-1.75c0.01-0.34,0.47-0.47,0.69-0.2l0.42,0.52C84.95,16.05,85.14,16.59,85.11,17.14"/>
			<path class="st0" d="M82.74,14.76l0.06,1.75c0.01,0.34-0.44,0.5-0.67,0.25l-0.45-0.49c-0.39-0.42-0.61-0.94-0.63-1.49l-0.06-1.75
				c-0.01-0.33,0.44-0.5,0.68-0.25l0.45,0.49C82.5,13.69,82.72,14.22,82.74,14.76"/>
			<path class="st0" d="M80.2,12.56l0.18,1.74c0.03,0.33-0.4,0.53-0.65,0.29l-0.49-0.46c-0.41-0.39-0.67-0.9-0.73-1.44l-0.18-1.74
				c-0.04-0.33,0.4-0.53,0.65-0.29l0.49,0.46C79.89,11.51,80.14,12.02,80.2,12.56"/>
			<path class="st0" d="M77.51,10.54l0.3,1.72c0.06,0.33-0.36,0.56-0.63,0.34l-0.51-0.42c-0.44-0.36-0.73-0.85-0.83-1.39l-0.3-1.72
				c-0.06-0.33,0.36-0.56,0.63-0.34l0.52,0.42C77.13,9.51,77.42,10,77.51,10.54"/>
			<path class="st0" d="M74.69,8.72l0.42,1.7c0.08,0.33-0.32,0.58-0.61,0.38l-0.54-0.38c-0.46-0.33-0.79-0.8-0.92-1.33l-0.43-1.7
				c-0.08-0.33,0.32-0.58,0.61-0.38l0.54,0.38C74.23,7.72,74.56,8.19,74.69,8.72"/>
			<path class="st0" d="M71.75,7.09l0.54,1.66c0.1,0.32-0.28,0.6-0.58,0.42l-0.57-0.34c-0.48-0.29-0.84-0.74-1.01-1.26l-0.54-1.66
				c-0.1-0.32,0.28-0.6,0.58-0.42l0.57,0.34C71.22,6.12,71.58,6.57,71.75,7.09"/>
			<path class="st0" d="M68.7,5.68l0.66,1.62c0.13,0.31-0.24,0.62-0.55,0.46l-0.59-0.3c-0.51-0.26-0.89-0.68-1.1-1.19l-0.66-1.62
				c-0.13-0.31,0.24-0.62,0.54-0.46l0.59,0.3C68.11,4.75,68.5,5.17,68.7,5.68"/>
			<path class="st0" d="M65.57,4.48l0.77,1.57c0.15,0.3-0.19,0.63-0.51,0.5l-0.61-0.26c-0.52-0.22-0.94-0.61-1.18-1.11L63.26,3.6
				c-0.15-0.3,0.2-0.63,0.51-0.5l0.61,0.26C64.91,3.59,65.33,3.98,65.57,4.48"/>
			<path class="st0" d="M62.35,3.5l0.88,1.52c0.17,0.29-0.15,0.65-0.48,0.53l-0.63-0.22c-0.54-0.19-0.98-0.55-1.25-1.02L60,2.79
				c-0.17-0.29,0.15-0.65,0.48-0.53l0.63,0.22C61.64,2.66,62.08,3.02,62.35,3.5"/>
			<path class="st0" d="M59.08,2.74l0.98,1.45c0.19,0.28-0.11,0.66-0.44,0.57l-0.64-0.17c-0.55-0.15-1.01-0.48-1.32-0.93L56.68,2.2
				c-0.19-0.28,0.1-0.65,0.44-0.57l0.64,0.18C58.3,1.96,58.77,2.29,59.08,2.74"/>
			<path class="st0" d="M55.76,2.22l1.08,1.38c0.21,0.27-0.06,0.66-0.4,0.59l-0.65-0.13c-0.56-0.11-1.04-0.41-1.38-0.84l-1.08-1.38
				c-0.21-0.26,0.06-0.66,0.4-0.59l0.65,0.13C54.93,1.49,55.42,1.79,55.76,2.22"/>
			<path class="st0" d="M52.41,1.93l1.17,1.3c0.22,0.25-0.01,0.66-0.36,0.62l-0.66-0.08C52,3.7,51.5,3.44,51.13,3.03l-1.17-1.3
				c-0.22-0.25,0.01-0.66,0.36-0.62l0.66,0.08C51.54,1.26,52.04,1.53,52.41,1.93"/>
			<path class="st0" d="M49.05,1.88l1.26,1.22c0.24,0.23,0.03,0.66-0.31,0.64L49.34,3.7c-0.57-0.03-1.09-0.25-1.49-0.64l-1.26-1.22
				c-0.24-0.23-0.03-0.66,0.31-0.64l0.66,0.04C48.13,1.27,48.66,1.5,49.05,1.88"/>
			<path class="st0" d="M45.7,2.06l1.34,1.13c0.26,0.21,0.08,0.66-0.27,0.66l-0.66,0.01C45.54,3.87,45,3.68,44.58,3.32L43.24,2.2
				c-0.26-0.22-0.08-0.66,0.26-0.66l0.66-0.01C44.74,1.52,45.27,1.71,45.7,2.06"/>
			<path class="st0" d="M42.36,2.47l1.42,1.03c0.27,0.2,0.12,0.65-0.22,0.68L42.9,4.24c-0.56,0.05-1.12-0.1-1.56-0.42l-1.42-1.03
				c-0.27-0.2-0.13-0.65,0.22-0.68l0.66-0.06C41.37,2,41.92,2.15,42.36,2.47"/>
			<path class="st0" d="M39.06,3.12l1.49,0.93c0.28,0.18,0.17,0.64-0.17,0.7l-0.66,0.1c-0.56,0.09-1.12-0.02-1.59-0.32L36.65,3.6
				c-0.29-0.18-0.17-0.64,0.17-0.7l0.66-0.1C38.04,2.71,38.6,2.82,39.06,3.12"/>
			<path class="st0" d="M35.82,3.99l1.55,0.82c0.29,0.16,0.21,0.63-0.12,0.71L36.6,5.66c-0.55,0.13-1.12,0.05-1.6-0.21l-1.55-0.82
				c-0.3-0.16-0.21-0.63,0.12-0.7l0.65-0.15C34.77,3.66,35.33,3.73,35.82,3.99"/>
			<path class="st0" d="M32.64,5.09l1.6,0.71c0.31,0.14,0.26,0.61-0.07,0.72L33.53,6.7c-0.54,0.16-1.11,0.13-1.61-0.09l-1.6-0.71
				c-0.31-0.14-0.26-0.61,0.07-0.71l0.64-0.19C31.57,4.83,32.14,4.86,32.64,5.09"/>
			<path class="st0" d="M29.55,6.4L31.2,7c0.32,0.12,0.3,0.59-0.02,0.72l-0.62,0.24c-0.53,0.2-1.1,0.21-1.62,0.02l-1.64-0.6
				c-0.31-0.12-0.3-0.59,0.02-0.72l0.62-0.24C28.46,6.22,29.03,6.21,29.55,6.4"/>
			<path class="st0" d="M26.56,7.93l1.68,0.48c0.32,0.09,0.34,0.57,0.03,0.72l-0.6,0.28c-0.52,0.24-1.08,0.29-1.61,0.14l-1.69-0.48
				c-0.32-0.09-0.34-0.57-0.03-0.72l0.6-0.28C25.46,7.82,26.03,7.78,26.56,7.93"/>
			<path class="st0" d="M23.68,9.66l1.71,0.36c0.33,0.07,0.38,0.54,0.08,0.71l-0.58,0.32c-0.5,0.27-1.06,0.36-1.6,0.25l-1.71-0.36
				c-0.33-0.07-0.38-0.54-0.08-0.71l0.59-0.32C22.58,9.63,23.14,9.55,23.68,9.66"/>
			<path class="st0" d="M20.93,11.59l1.73,0.24c0.33,0.05,0.42,0.52,0.13,0.7l-0.56,0.36c-0.48,0.31-1.03,0.43-1.58,0.36l-1.74-0.24
				c-0.33-0.05-0.41-0.52-0.13-0.7l0.56-0.36C19.83,11.64,20.38,11.52,20.93,11.59"/>
			<path class="st0" d="M18.32,13.71l1.75,0.12c0.34,0.02,0.45,0.49,0.17,0.69l-0.53,0.4c-0.45,0.34-1,0.5-1.55,0.47l-1.75-0.12
				c-0.34-0.02-0.45-0.49-0.18-0.69l0.53-0.4C17.22,13.83,17.77,13.67,18.32,13.71"/>
			<path class="st0" d="M15.86,16h1.75c0.33,0,0.48,0.46,0.22,0.68l-0.5,0.43c-0.43,0.37-0.96,0.57-1.51,0.57h-1.75
				c-0.34,0-0.49-0.45-0.22-0.68l0.5-0.43C14.78,16.2,15.31,16,15.86,16"/>
			<path class="st0" d="M13.58,18.46l1.75-0.12c0.33-0.02,0.51,0.42,0.27,0.66l-0.48,0.47c-0.4,0.4-0.92,0.64-1.47,0.68l-1.75,0.12
				c-0.34,0.02-0.52-0.42-0.27-0.66l0.47-0.47C12.51,18.74,13.03,18.5,13.58,18.46"/>
			<path class="st0" d="M11.47,21.07l1.73-0.24c0.33-0.05,0.54,0.38,0.31,0.64l-0.44,0.5c-0.37,0.43-0.87,0.7-1.42,0.78l-1.73,0.25
				c-0.33,0.05-0.54-0.38-0.32-0.64l0.44-0.5C10.42,21.42,10.92,21.15,11.47,21.07"/>
			<path class="st0" d="M9.54,23.83l1.71-0.36c0.33-0.07,0.57,0.34,0.36,0.62l-0.4,0.53c-0.34,0.45-0.82,0.76-1.36,0.87l-1.71,0.36
				c-0.33,0.07-0.57-0.34-0.36-0.62l0.4-0.53C8.52,24.25,9,23.94,9.54,23.83"/>
			<path class="st0" d="M7.81,26.71l1.68-0.48c0.32-0.09,0.59,0.31,0.4,0.59l-0.36,0.56c-0.31,0.48-0.77,0.82-1.3,0.97l-1.68,0.48
				c-0.32,0.09-0.59-0.3-0.4-0.59l0.36-0.56C6.82,27.2,7.28,26.86,7.81,26.71"/>
			<path class="st0" d="M6.29,29.7l1.65-0.6c0.31-0.12,0.61,0.26,0.44,0.56l-0.32,0.58c-0.28,0.5-0.71,0.87-1.23,1.05l-1.64,0.6
				c-0.32,0.11-0.61-0.26-0.44-0.56l0.33-0.58C5.34,30.26,5.77,29.89,6.29,29.7"/>
			<path class="st0" d="M4.98,32.79l1.6-0.71c0.31-0.14,0.63,0.22,0.48,0.53l-0.28,0.6c-0.24,0.51-0.65,0.91-1.15,1.14l-1.6,0.71
				c-0.31,0.13-0.63-0.22-0.48-0.53l0.28-0.6C4.07,33.42,4.48,33.02,4.98,32.79"/>
			<path class="st0" d="M3.89,35.97l1.55-0.82c0.3-0.16,0.64,0.17,0.52,0.49l-0.24,0.62c-0.21,0.53-0.58,0.96-1.07,1.21L3.1,38.3
				c-0.3,0.16-0.64-0.17-0.51-0.49l0.24-0.62C3.03,36.66,3.4,36.23,3.89,35.97"/>
			<path class="st0" d="M3.02,39.22l1.48-0.93c0.28-0.18,0.65,0.13,0.55,0.46l-0.2,0.64c-0.17,0.54-0.51,0.99-0.98,1.29L2.4,41.6
				c-0.28,0.18-0.65-0.13-0.55-0.46l0.19-0.63C2.21,39.96,2.56,39.51,3.02,39.22"/>
			<path class="st0" d="M2.38,42.51l1.42-1.03c0.27-0.2,0.66,0.08,0.58,0.42l-0.15,0.65C4.1,43.1,3.79,43.58,3.34,43.9l-1.42,1.03
				c-0.27,0.2-0.66-0.08-0.58-0.42l0.15-0.65C1.63,43.32,1.94,42.84,2.38,42.51"/>
			<path class="st0" d="M1.98,45.85l1.34-1.12c0.26-0.22,0.66,0.04,0.61,0.38l-0.11,0.66c-0.09,0.56-0.37,1.06-0.79,1.41l-1.34,1.12
				c-0.26,0.22-0.66-0.03-0.61-0.37l0.1-0.66C1.28,46.7,1.56,46.2,1.98,45.85"/>
			<path class="st0" d="M1.81,49.2l1.26-1.22c0.24-0.23,0.66-0.01,0.63,0.34l-0.06,0.66c-0.05,0.56-0.3,1.08-0.69,1.46l-1.26,1.22
				c-0.24,0.23-0.66,0.01-0.63-0.33l0.06-0.66C1.17,50.1,1.41,49.59,1.81,49.2"/>
			<path class="st0" d="M1.87,52.56l1.17-1.3c0.22-0.25,0.66-0.06,0.65,0.29l-0.02,0.67c-0.01,0.56-0.22,1.1-0.59,1.51l-1.17,1.3
				c-0.22,0.25-0.66,0.05-0.65-0.29l0.01-0.66C1.29,53.5,1.5,52.97,1.87,52.56"/>
			<path class="st0" d="M2.16,55.91l1.08-1.38c0.21-0.26,0.65-0.1,0.67,0.24l0.04,0.67c0.03,0.56-0.14,1.11-0.48,1.54l-1.08,1.38
				c-0.2,0.26-0.66,0.1-0.67-0.24l-0.03-0.66C1.66,56.89,1.83,56.34,2.16,55.91"/>
			<path class="st0" d="M2.7,59.23l0.98-1.45c0.19-0.28,0.65-0.15,0.69,0.19l0.08,0.66c0.07,0.56-0.06,1.12-0.37,1.57l-0.98,1.45
				c-0.19,0.28-0.65,0.15-0.69-0.2L2.32,60.8C2.26,60.24,2.39,59.68,2.7,59.23"/>
			<path class="st0" d="M3.45,62.5l0.88-1.52c0.17-0.29,0.64-0.19,0.7,0.15l0.13,0.65c0.1,0.56,0.02,1.12-0.26,1.6l-0.87,1.52
				c-0.17,0.29-0.64,0.19-0.7-0.15l-0.12-0.65C3.09,63.54,3.18,62.97,3.45,62.5"/>
			<path class="st0" d="M4.44,65.71l0.77-1.58c0.15-0.3,0.62-0.23,0.71,0.1l0.17,0.64c0.15,0.55,0.09,1.11-0.15,1.61l-0.77,1.57
				c-0.15,0.3-0.62,0.23-0.71-0.1l-0.17-0.64C4.14,66.77,4.2,66.2,4.44,65.71"/>
			<path class="st0" d="M5.65,68.84l0.65-1.62c0.13-0.31,0.6-0.28,0.72,0.05l0.21,0.63C7.42,68.43,7.4,69,7.2,69.51l-0.66,1.62
				c-0.12,0.31-0.6,0.28-0.71-0.05l-0.22-0.63C5.43,69.92,5.44,69.36,5.65,68.84"/>
			<path class="st0" d="M7.07,71.88l0.54-1.66c0.1-0.32,0.58-0.32,0.71,0l0.26,0.61c0.22,0.52,0.25,1.09,0.08,1.61l-0.54,1.66
				c-0.1,0.32-0.58,0.32-0.72,0L7.15,73.5C6.93,72.98,6.9,72.41,7.07,71.88"/>
			<path class="st0" d="M8.7,74.82l0.42-1.7c0.08-0.33,0.56-0.36,0.71-0.05l0.3,0.59c0.25,0.51,0.32,1.07,0.19,1.61l-0.43,1.7
				c-0.08,0.32-0.56,0.36-0.71,0.05l-0.3-0.59C8.64,75.92,8.57,75.35,8.7,74.82"/>
			<path class="st0" d="M10.53,77.64l0.3-1.72c0.06-0.33,0.53-0.4,0.71-0.1l0.34,0.57c0.29,0.49,0.39,1.05,0.3,1.59l-0.3,1.72
				c-0.06,0.33-0.53,0.4-0.71,0.1l-0.34-0.57C10.55,78.74,10.44,78.18,10.53,77.64"/>
			<path class="st0" d="M12.56,80.32l0.19-1.74c0.03-0.33,0.5-0.44,0.7-0.15l0.38,0.55c0.33,0.46,0.47,1.02,0.41,1.56l-0.18,1.74
				c-0.03,0.33-0.5,0.43-0.7,0.15l-0.38-0.55C12.65,81.42,12.5,80.86,12.56,80.32"/>
			<path class="st0" d="M14.77,82.85l0.06-1.75c0.01-0.34,0.47-0.47,0.69-0.2l0.42,0.52c0.35,0.44,0.54,0.98,0.52,1.53l-0.06,1.75
				c-0.01,0.33-0.47,0.47-0.69,0.2l-0.42-0.52C14.93,83.94,14.75,83.4,14.77,82.85"/>
			<path class="st0" d="M17.15,85.22l-0.06-1.75c-0.01-0.34,0.44-0.5,0.67-0.25l0.45,0.49c0.38,0.41,0.61,0.94,0.63,1.49l0.06,1.75
				c0.01,0.34-0.44,0.5-0.67,0.25l-0.45-0.49C17.39,86.3,17.16,85.77,17.15,85.22"/>
			<path class="st0" d="M19.68,87.42l-0.18-1.74c-0.03-0.33,0.4-0.53,0.65-0.29l0.49,0.45c0.41,0.39,0.67,0.9,0.73,1.44l0.18,1.74
				c0.03,0.33-0.4,0.53-0.65,0.29l-0.49-0.46C20,88.48,19.74,87.97,19.68,87.42"/>
			<path class="st0" d="M22.37,89.44l-0.3-1.72c-0.06-0.33,0.36-0.56,0.63-0.34l0.52,0.42c0.44,0.36,0.73,0.85,0.82,1.39l0.31,1.72
				c0.06,0.33-0.36,0.55-0.63,0.34l-0.52-0.42C22.76,90.47,22.46,89.99,22.37,89.44"/>
			<path class="st0" d="M25.19,91.27l-0.42-1.7c-0.08-0.33,0.32-0.58,0.61-0.38l0.54,0.38c0.46,0.33,0.79,0.79,0.92,1.33l0.43,1.7
				c0.08,0.33-0.32,0.58-0.61,0.38l-0.54-0.38C25.65,92.27,25.32,91.8,25.19,91.27"/>
			<path class="st0" d="M28.13,92.89l-0.54-1.66c-0.1-0.32,0.28-0.6,0.58-0.42l0.57,0.34c0.48,0.29,0.84,0.74,1.01,1.26l0.54,1.67
				c0.1,0.32-0.28,0.6-0.58,0.42l-0.57-0.35C28.66,93.86,28.3,93.42,28.13,92.89"/>
			<path class="st0" d="M31.18,94.31l-0.66-1.62c-0.13-0.31,0.24-0.62,0.55-0.46l0.59,0.3c0.51,0.26,0.89,0.68,1.1,1.19l0.65,1.62
				c0.13,0.31-0.24,0.62-0.54,0.46l-0.59-0.3C31.77,95.24,31.38,94.82,31.18,94.31"/>
			<path class="st0" d="M34.32,95.51l-0.77-1.57c-0.15-0.3,0.19-0.63,0.51-0.5l0.61,0.26c0.52,0.22,0.94,0.61,1.18,1.11l0.77,1.57
				c0.15,0.3-0.2,0.63-0.51,0.5l-0.61-0.26C34.97,96.4,34.56,96.01,34.32,95.51"/>
			<path class="st0" d="M37.53,96.49l-0.88-1.52c-0.17-0.29,0.15-0.65,0.48-0.53l0.63,0.22c0.54,0.19,0.98,0.55,1.25,1.02l0.88,1.52
				c0.17,0.29-0.15,0.65-0.48,0.53l-0.62-0.22C38.25,97.33,37.81,96.96,37.53,96.49"/>
			<path class="st0" d="M40.8,97.24l-0.98-1.45c-0.19-0.28,0.11-0.66,0.44-0.57l0.64,0.17c0.55,0.15,1.02,0.48,1.32,0.94l0.98,1.45
				c0.19,0.28-0.1,0.65-0.44,0.57l-0.64-0.18C41.58,98.03,41.11,97.7,40.8,97.24"/>
			<path class="st0" d="M44.12,97.76l-1.08-1.38c-0.21-0.27,0.06-0.66,0.4-0.59l0.65,0.13c0.56,0.11,1.04,0.41,1.38,0.84l1.08,1.38
				c0.21,0.26-0.06,0.66-0.4,0.6l-0.65-0.13C44.95,98.49,44.46,98.2,44.12,97.76"/>
			<path class="st0" d="M47.47,98.05l-1.17-1.3c-0.22-0.25,0.01-0.66,0.36-0.62l0.66,0.08c0.56,0.07,1.07,0.33,1.44,0.74l1.17,1.3
				c0.22,0.25-0.01,0.66-0.36,0.62l-0.66-0.08C48.35,98.72,47.84,98.46,47.47,98.05"/>
			<path class="st0" d="M50.83,98.11l-1.26-1.22c-0.24-0.23-0.04-0.66,0.31-0.64l0.66,0.04c0.57,0.03,1.09,0.25,1.49,0.63l1.26,1.22
				c0.24,0.23,0.04,0.66-0.31,0.64l-0.66-0.04C51.75,98.72,51.23,98.49,50.83,98.11"/>
			<path class="st0" d="M54.19,97.93l-1.34-1.13c-0.26-0.22-0.08-0.66,0.26-0.66l0.66-0.01c0.57-0.01,1.11,0.18,1.53,0.53l1.34,1.12
				c0.26,0.21,0.08,0.66-0.27,0.66l-0.66,0.01C55.14,98.47,54.61,98.28,54.19,97.93"/>
			<path class="st0" d="M57.52,97.52l-1.42-1.03c-0.27-0.2-0.12-0.65,0.22-0.68l0.66-0.06c0.56-0.05,1.11,0.1,1.56,0.43l1.42,1.03
				c0.27,0.2,0.12,0.65-0.22,0.68l-0.66,0.06C58.52,97.99,57.97,97.84,57.52,97.52"/>
			<path class="st0" d="M60.82,96.87l-1.48-0.93c-0.29-0.17-0.17-0.64,0.17-0.69l0.66-0.1c0.56-0.09,1.12,0.02,1.59,0.32l1.48,0.93
				c0.29,0.18,0.17,0.64-0.17,0.7l-0.66,0.1C61.85,97.28,61.29,97.16,60.82,96.87"/>
			<path class="st0" d="M64.07,96l-1.55-0.82c-0.3-0.16-0.21-0.63,0.12-0.71l0.65-0.15c0.56-0.13,1.12-0.05,1.61,0.2l1.54,0.82
				c0.3,0.16,0.22,0.63-0.12,0.7l-0.65,0.15C65.12,96.33,64.55,96.26,64.07,96"/>
			<path class="st0" d="M67.24,94.9l-1.6-0.71c-0.31-0.14-0.26-0.61,0.07-0.71l0.64-0.19c0.54-0.16,1.11-0.13,1.61,0.09l1.6,0.71
				c0.31,0.14,0.26,0.61-0.07,0.71l-0.64,0.19C68.31,95.16,67.74,95.13,67.24,94.9"/>
			<path class="st0" d="M70.33,93.59l-1.65-0.6c-0.32-0.11-0.3-0.59,0.02-0.71l0.62-0.24c0.53-0.2,1.1-0.21,1.62-0.02l1.64,0.6
				c0.32,0.11,0.3,0.59-0.02,0.72l-0.62,0.24C71.42,93.77,70.85,93.77,70.33,93.59"/>
			<path class="st0" d="M73.33,92.06l-1.68-0.48c-0.32-0.09-0.34-0.57-0.03-0.72l0.61-0.28c0.52-0.24,1.08-0.28,1.61-0.13l1.68,0.48
				c0.32,0.09,0.34,0.57,0.03,0.72l-0.61,0.28C74.42,92.17,73.85,92.21,73.33,92.06"/>
			<path class="st0" d="M76.2,90.33l-1.71-0.36c-0.33-0.07-0.38-0.54-0.08-0.71l0.58-0.32c0.5-0.27,1.06-0.36,1.6-0.24l1.71,0.36
				c0.33,0.07,0.38,0.54,0.08,0.71l-0.59,0.32C77.3,90.35,76.74,90.44,76.2,90.33"/>
			<path class="st0" d="M78.95,88.4l-1.74-0.25c-0.34-0.05-0.42-0.51-0.13-0.7l0.56-0.36c0.47-0.31,1.03-0.44,1.58-0.36l1.73,0.24
				c0.33,0.05,0.42,0.52,0.13,0.7l-0.56,0.36C80.05,88.35,79.5,88.47,78.95,88.4"/>
			<path class="st0" d="M81.56,86.28l-1.75-0.12c-0.33-0.02-0.45-0.48-0.17-0.69l0.53-0.4c0.45-0.34,1-0.5,1.55-0.46l1.75,0.12
				c0.34,0.02,0.45,0.49,0.18,0.69l-0.53,0.4C82.66,86.15,82.11,86.32,81.56,86.28"/>
		</g>
	</g>
	<polygon class="st1" points="45.81,11.42 48.37,9.58 47.38,6.56 49.92,8.43 52.48,6.55 51.5,9.54 54.07,11.4 50.92,11.39 
		49.95,14.41 48.99,11.41 	"/>
	<polygon class="st1" points="31.36,15.94 33.02,13.26 30.95,10.85 34.01,11.6 35.67,8.89 35.9,12.03 38.99,12.76 36.07,13.95 
		36.33,17.12 34.29,14.71 	"/>
	<polygon class="st1" points="19.74,25.64 20.25,22.53 17.42,21.09 20.53,20.62 21.02,17.48 22.44,20.29 25.57,19.79 23.34,22 
		24.78,24.83 21.98,23.39 	"/>
	<polygon class="st1" points="12.72,39.05 12,35.98 8.84,35.74 11.53,34.11 10.78,31.02 13.17,33.08 15.87,31.41 14.65,34.32 
		17.07,36.37 13.93,36.11 	"/>
	<polygon class="st1" points="11.37,54.12 9.53,51.57 6.51,52.56 8.37,50.02 6.5,47.45 9.49,48.44 11.35,45.86 11.34,49.01 
		14.36,49.99 11.36,50.95 	"/>
	<polygon class="st1" points="15.88,68.57 13.2,66.91 10.8,68.98 11.54,65.92 8.83,64.27 11.97,64.04 12.71,60.95 13.9,63.86 
		17.07,63.61 14.66,65.64 	"/>
	<polygon class="st1" points="25.58,80.19 22.48,79.68 21.04,82.52 20.56,79.4 17.43,78.91 20.24,77.5 19.73,74.36 21.95,76.6 
		24.78,75.15 23.33,77.95 	"/>
	<polygon class="st1" points="38.99,87.21 35.93,87.93 35.69,91.1 34.05,88.41 30.97,89.16 33.02,86.77 31.36,84.07 34.26,85.29 
		36.32,82.87 36.06,86 	"/>
	<polygon class="st1" points="54.07,88.57 51.51,90.41 52.5,93.43 49.96,91.56 47.4,93.44 48.39,90.44 45.81,88.58 48.96,88.6 
		49.93,85.58 50.89,88.58 	"/>
	<polygon class="st1" points="68.52,84.05 66.86,86.73 68.93,89.14 65.87,88.39 64.22,91.1 63.98,87.96 60.89,87.23 63.81,86.03 
		63.55,82.87 65.59,85.27 	"/>
	<polygon class="st1" points="80.14,74.35 79.63,77.46 82.46,78.89 79.35,79.37 78.86,82.51 77.44,79.7 74.31,80.2 76.55,77.98 
		75.1,75.16 77.9,76.6 	"/>
	<polygon class="st1" points="87.16,60.94 87.88,64.01 91.05,64.25 88.35,65.88 89.1,68.97 86.72,66.91 84.01,68.58 85.23,65.67 
		82.81,63.62 85.95,63.88 	"/>
	<polygon class="st1" points="88.51,45.86 90.35,48.42 93.37,47.43 91.51,49.97 93.38,52.54 90.39,51.55 88.53,54.12 88.55,50.97 
		85.52,50 88.52,49.04 	"/>
	<polygon class="st1" points="84,31.42 86.68,33.08 89.09,31.01 88.34,34.07 91.05,35.72 87.91,35.95 87.17,39.04 85.98,36.13 
		82.82,36.38 85.22,34.35 	"/>
	<polygon class="st1" points="74.3,19.8 77.41,20.31 78.84,17.47 79.32,20.59 82.46,21.07 79.64,22.49 80.15,25.63 77.93,23.39 
		75.1,24.84 76.55,22.04 	"/>
	<polygon class="st1" points="60.89,12.78 63.95,12.05 64.19,8.89 65.83,11.58 68.91,10.83 66.86,13.22 68.52,15.92 65.62,14.7 
		63.56,17.12 63.82,13.98 	"/>
	<path class="st0" d="M49.94,74.89c-13.73,0-24.9-11.17-24.9-24.9c0-13.73,11.17-24.9,24.9-24.9s24.9,11.17,24.9,24.9
		C74.85,63.72,63.67,74.89,49.94,74.89 M49.94,25.82c-13.33,0-24.17,10.85-24.17,24.17c0,13.33,10.85,24.17,24.17,24.17
		c13.33,0,24.17-10.84,24.17-24.17C74.12,36.66,63.27,25.82,49.94,25.82"/>
	<path class="st0" d="M49.94,83.52c-18.49,0-33.53-15.04-33.53-33.53s15.04-33.53,33.53-33.53c18.49,0,33.53,15.04,33.53,33.53
		S68.43,83.52,49.94,83.52 M49.94,17.21c-18.07,0-32.78,14.7-32.78,32.78c0,18.07,14.71,32.78,32.78,32.78
		c18.07,0,32.78-14.7,32.78-32.78C82.72,31.92,68.02,17.21,49.94,17.21"/>
	<g>
		<path class="st0" d="M33.97,75.13l0.91,0.6l-0.42,0.65l-2.61-1.72l0.43-0.64l0.93,0.61l1.81-2.75l0.77,0.51L33.97,75.13z"/>
		<path class="st0" d="M28.58,72.74c-0.16,0.17-0.41,0.19-0.58,0.03c-0.17-0.16-0.17-0.41-0.01-0.58c0.15-0.16,0.4-0.19,0.58-0.03
			C28.74,72.32,28.73,72.57,28.58,72.74z M29.75,72.94l1.59-1.72c0.48-0.51,0.52-0.96,0.18-1.28c-0.35-0.33-0.78-0.26-1.27,0.27
			l-1.59,1.72l-0.67-0.62l1.55-1.67c0.85-0.92,1.72-0.93,2.5-0.21c0.75,0.7,0.81,1.52-0.07,2.48l-1.54,1.67L29.75,72.94z
			 M29.5,73.59c-0.16,0.17-0.42,0.18-0.59,0.02c-0.17-0.15-0.17-0.4-0.01-0.58c0.15-0.16,0.4-0.19,0.57-0.03
			C29.65,73.17,29.65,73.43,29.5,73.59z"/>
		<path class="st0" d="M26.6,69.68c-0.22-0.21-0.52-0.53-0.81-0.92c-0.37-0.48-0.55-0.87-0.55-1.24c0.01-0.31,0.15-0.59,0.45-0.82
			c0.41-0.32,0.92-0.24,1.23-0.04l0.01-0.01c-0.08-0.29,0.04-0.59,0.27-0.9c0.29-0.38,0.63-0.81,0.71-0.96l0.57,0.75
			c-0.05,0.12-0.26,0.4-0.58,0.8c-0.34,0.39-0.34,0.62-0.12,0.92l0.17,0.22l1.27-0.98l0.56,0.72L26.6,69.68z M27.43,67.89
			l-0.22-0.29c-0.28-0.36-0.63-0.44-0.91-0.22c-0.3,0.23-0.29,0.54-0.04,0.88c0.14,0.18,0.23,0.27,0.28,0.31L27.43,67.89z"/>
		<path class="st0" d="M23.68,65.68l-0.43-0.8l1.59-0.85l-0.01-0.02c-0.18-0.01-0.35-0.02-0.53-0.03l-1.63-0.18l-0.53-1l2.16,0.37
			l1.39-2.35l0.51,0.95l-1.08,1.71l0.54,0.11l1.17-0.63l0.43,0.8L23.68,65.68z"/>
		<path class="st0" d="M20.9,61.4c-0.22,0.08-0.46-0.03-0.54-0.25c-0.08-0.22,0.03-0.44,0.25-0.53c0.2-0.08,0.45,0.02,0.53,0.23
			C21.22,61.09,21.1,61.33,20.9,61.4z M21.19,60.36L25,58.91l0.33,0.86l-3.81,1.44L21.19,60.36z"/>
		<path class="st0" d="M24.29,56.6l-1.62,0.39l-2.04,1.81l-0.24-1.02l0.85-0.63c0.26-0.19,0.45-0.33,0.68-0.49l0-0.01
			c-0.27-0.03-0.52-0.07-0.83-0.12l-1.05-0.17l-0.24-1l2.62,0.75l1.65-0.39L24.29,56.6z"/>
		<path class="st0" d="M21.72,51l0.12,1.49l0.96-0.08l-0.13-1.67l0.75-0.06l0.21,2.59l-4.05,0.32l-0.2-2.5l0.75-0.06l0.12,1.58
			l0.84-0.07l-0.12-1.49L21.72,51z"/>
		<path class="st0" d="M23.84,44.67c0.06,0.18,0.09,0.57,0.02,1.06c-0.2,1.39-1.17,1.98-2.32,1.82c-1.37-0.2-1.99-1.29-1.82-2.51
			c0.07-0.47,0.21-0.82,0.32-0.97l0.69,0.29c-0.1,0.17-0.21,0.42-0.26,0.74c-0.1,0.72,0.25,1.35,1.15,1.48
			c0.81,0.12,1.38-0.29,1.5-1.1c0.04-0.27,0.02-0.59-0.02-0.78L23.84,44.67z"/>
		<path class="st0" d="M20.62,41.38l2.23,0.71c0.67,0.21,1.09,0.07,1.23-0.38c0.15-0.46-0.09-0.82-0.78-1.03l-2.23-0.71l0.28-0.87
			l2.17,0.69c1.2,0.38,1.57,1.17,1.25,2.18c-0.31,0.98-1.04,1.38-2.27,0.98l-2.16-0.69L20.62,41.38z"/>
		<path class="st0" d="M26.05,35.24c-0.44-0.22-0.96-0.49-1.48-0.78l-0.01,0.02c0.39,0.36,0.82,0.79,1.16,1.16l1.15,1.2l-0.35,0.63
			l-1.59-0.38c-0.48-0.12-1.06-0.27-1.57-0.45l-0.01,0.01c0.47,0.29,1.01,0.61,1.44,0.88l1.32,0.81l-0.41,0.74l-3.43-2.2l0.59-1.07
			l1.38,0.31c0.47,0.12,0.98,0.25,1.44,0.41l0.01-0.02c-0.36-0.33-0.76-0.71-1.09-1.05l-0.97-1.04l0.58-1.05l3.66,1.78l-0.44,0.79
			L26.05,35.24z"/>
		<path class="st0" d="M26.2,30.73l1.19,1.02l0.98-1.15l-1.19-1.02l0.6-0.7l3.09,2.64l-0.6,0.7l-1.3-1.11L28,32.26l1.3,1.11
			l-0.6,0.7l-3.09-2.64L26.2,30.73z"/>
		<path class="st0" d="M30.09,26.75l1.47,1.82c0.44,0.54,0.87,0.65,1.24,0.36c0.38-0.3,0.37-0.73-0.08-1.29l-1.47-1.82l0.71-0.58
			l1.43,1.77c0.79,0.97,0.67,1.84-0.15,2.51c-0.8,0.65-1.62,0.59-2.44-0.42l-1.43-1.76L30.09,26.75z"/>
		<path class="st0" d="M33.76,24.1c0.23-0.19,0.6-0.44,1.02-0.68c0.53-0.3,0.94-0.43,1.3-0.37c0.3,0.05,0.56,0.23,0.74,0.56
			c0.26,0.45,0.11,0.94-0.13,1.23l0.01,0.02c0.3-0.04,0.57,0.12,0.85,0.39c0.34,0.34,0.71,0.74,0.85,0.84l-0.82,0.46
			c-0.12-0.07-0.36-0.31-0.71-0.69c-0.35-0.39-0.57-0.42-0.89-0.24l-0.24,0.14l0.79,1.39l-0.79,0.45L33.76,24.1z M35.42,25.17
			l0.32-0.18c0.4-0.23,0.52-0.56,0.35-0.87c-0.18-0.33-0.5-0.36-0.87-0.16c-0.19,0.11-0.3,0.19-0.35,0.23L35.42,25.17z"/>
		<path class="st0" d="M37.84,21.23c-0.09-0.22,0.02-0.46,0.23-0.55c0.21-0.09,0.44,0.02,0.53,0.23c0.08,0.2-0.01,0.45-0.22,0.53
			C38.16,21.54,37.92,21.43,37.84,21.23z M38.89,21.5l1.53,3.77l-0.86,0.35l-1.53-3.77L38.89,21.5z"/>
		<path class="st0" d="M42.73,24.5l-0.43-1.61l-1.86-1.99l1.02-0.27l0.65,0.84c0.2,0.25,0.34,0.44,0.5,0.67l0.01,0
			c0.02-0.27,0.06-0.52,0.1-0.83l0.15-1.05l1-0.26l-0.69,2.64l0.43,1.64L42.73,24.5z"/>
		<path class="st0" d="M48.24,21.8l-1.49,0.15l0.1,0.96l1.66-0.17l0.08,0.75l-2.58,0.26l-0.42-4.05l2.5-0.26l0.08,0.75l-1.58,0.16
			l0.09,0.84l1.49-0.15L48.24,21.8z"/>
		<path class="st0" d="M50.88,20.22l-1.09-0.05l0.04-0.77l3.12,0.15l-0.04,0.77l-1.11-0.05l-0.16,3.29l-0.92-0.04L50.88,20.22z"/>
		<path class="st0" d="M55.48,19.94l-0.68,4.01l-0.91-0.15l0.68-4.01L55.48,19.94z M54.73,19.16c0.04-0.23,0.25-0.38,0.49-0.34
			c0.23,0.04,0.37,0.25,0.33,0.48c-0.04,0.21-0.24,0.38-0.47,0.34C54.84,19.59,54.69,19.37,54.73,19.16z"/>
		<path class="st0" d="M58.33,23.84c0.19,0.2,0.5,0.46,0.87,0.59c0.4,0.15,0.67,0.06,0.76-0.19c0.09-0.24-0.04-0.44-0.44-0.77
			c-0.55-0.46-0.84-0.96-0.63-1.51c0.24-0.65,0.97-0.95,1.87-0.62c0.43,0.16,0.71,0.37,0.9,0.55l-0.45,0.63
			c-0.13-0.13-0.36-0.34-0.73-0.48C60.1,21.9,59.86,22,59.78,22.2c-0.09,0.24,0.09,0.43,0.51,0.8c0.58,0.5,0.77,0.97,0.57,1.5
			c-0.24,0.64-0.93,1-1.98,0.62c-0.44-0.16-0.83-0.43-1-0.63L58.33,23.84z"/>
		<path class="st0" d="M62.9,25.68l-0.76,0.77l-0.83-0.47l3.07-2.94l1.05,0.59l-0.89,4.17l-0.86-0.48l0.24-1.07L62.9,25.68z
			 M64.14,25.59l0.2-0.88c0.05-0.25,0.14-0.54,0.21-0.79l-0.01-0.01c-0.17,0.18-0.37,0.42-0.55,0.59l-0.63,0.64L64.14,25.59z"/>
		<path class="st0" d="M68.14,30.41c-0.28-0.1-0.78-0.34-1.2-0.68c-0.58-0.47-0.87-0.95-0.93-1.47c-0.07-0.51,0.11-1.05,0.49-1.51
			c0.86-1.04,2.11-1.02,3.14-0.18c0.41,0.33,0.65,0.67,0.75,0.87l-0.62,0.45c-0.11-0.22-0.28-0.45-0.62-0.73
			c-0.59-0.49-1.32-0.51-1.87,0.17c-0.53,0.65-0.44,1.37,0.14,1.84c0.16,0.13,0.31,0.22,0.39,0.24l0.54-0.66l-0.48-0.4l0.45-0.56
			l1.17,0.96L68.14,30.41z M69.79,25.44c-0.07,0.11-0.09,0.28,0.1,0.44c0.2,0.16,0.35,0.12,0.47,0.03l0.36,0.3
			c-0.29,0.33-0.69,0.42-1.14,0.06c-0.46-0.38-0.45-0.78-0.17-1.13L69.79,25.44z"/>
		<path class="st0" d="M72.08,28.89l0.61,0.69l-2.47,2.18l1.07,1.21l-0.58,0.51l-1.68-1.91L72.08,28.89z"/>
		<path class="st0" d="M75.28,32.9l-3.34,2.33l-0.53-0.76l3.34-2.33L75.28,32.9z"/>
		<path class="st0" d="M76.38,34.6l0.42,0.81l-1.59,0.83l0.01,0.02c0.18,0.01,0.35,0.03,0.52,0.04l1.62,0.19l0.52,1l-2.16-0.39
			l-1.42,2.34l-0.5-0.95l1.1-1.69l-0.54-0.11l-1.18,0.61l-0.42-0.81L76.38,34.6z"/>
		<path class="st0" d="M79.16,41.09c0.11,0.22,0.26,0.69,0.38,1.13c0.14,0.54,0.17,0.89,0.07,1.22c-0.08,0.31-0.3,0.58-0.65,0.67
			c-0.35,0.09-0.73-0.03-1.01-0.44l-0.01,0c-0.01,0.48-0.26,0.9-0.77,1.03c-0.36,0.09-0.68,0-0.94-0.2
			c-0.3-0.23-0.55-0.68-0.75-1.46c-0.11-0.44-0.17-0.77-0.19-0.98L79.16,41.09z M76.12,42.8c0.01,0.09,0.04,0.2,0.08,0.35
			c0.1,0.4,0.35,0.72,0.76,0.62c0.4-0.1,0.47-0.5,0.35-0.94l-0.08-0.3L76.12,42.8z M77.87,42.36l0.07,0.29
			c0.12,0.47,0.38,0.67,0.67,0.6c0.3-0.08,0.4-0.34,0.3-0.75c-0.05-0.19-0.09-0.3-0.12-0.37L77.87,42.36z"/>
		<path class="st0" d="M77.34,47.07l-1.07-0.2l-0.08-0.95l4.16,0.9l0.1,1.2l-3.95,1.6l-0.08-0.99l1.02-0.4L77.34,47.07z
			 M78.11,48.05l0.84-0.33c0.23-0.09,0.53-0.19,0.77-0.27l0-0.01c-0.25-0.04-0.56-0.07-0.8-0.12l-0.88-0.17L78.11,48.05z"/>
		<path class="st0" d="M80.52,51.14l-0.08,0.91l-1.79-0.16l0,0.02c0.15,0.1,0.28,0.21,0.42,0.32l1.27,1.04l-0.1,1.13l-1.61-1.49
			l-2.45,1.21l0.09-1.07l1.84-0.84l-0.4-0.39l-1.32-0.12l0.08-0.91L80.52,51.14z"/>
		<path class="st0" d="M76.71,56.47l-0.93-0.55L76.02,55l3.61,2.24l-0.31,1.17l-4.25,0.18l0.25-0.95l1.09-0.04L76.71,56.47z
			 M77.11,57.64l0.9-0.02c0.25-0.01,0.56,0,0.81,0l0-0.01c-0.22-0.12-0.5-0.26-0.71-0.38l-0.77-0.45L77.11,57.64z"/>
		<path class="st0" d="M74.66,59.66l3.69,1.71l-0.45,0.97l-1.71,0.14c-0.49,0.04-1.05,0.04-1.54,0.02l-0.01,0.02
			c0.51,0.17,1.02,0.39,1.57,0.64l1.08,0.5l-0.36,0.77l-3.69-1.71l0.41-0.87l1.79-0.13c0.5-0.04,1.08-0.06,1.6-0.04l0-0.02
			c-0.5-0.2-1.02-0.44-1.62-0.71l-1.11-0.52L74.66,59.66z"/>
		<path class="st0" d="M75.84,66.27l-0.52,0.76l-2.73-1.86l-0.91,1.33l-0.64-0.44l1.43-2.1L75.84,66.27z"/>
		<path class="st0" d="M72.72,70.37l-3.07-2.67l0.61-0.7l3.07,2.67L72.72,70.37z"/>
		<path class="st0" d="M66.22,71.2c0.15-0.26,0.47-0.71,0.87-1.07c0.56-0.49,1.09-0.7,1.61-0.68c0.51,0.02,1.02,0.28,1.41,0.73
			c0.89,1.02,0.66,2.25-0.35,3.13c-0.39,0.35-0.77,0.54-0.98,0.6l-0.34-0.68c0.23-0.07,0.49-0.2,0.83-0.49
			c0.58-0.51,0.73-1.22,0.14-1.88c-0.55-0.63-1.27-0.66-1.84-0.16c-0.16,0.14-0.27,0.27-0.3,0.34l0.56,0.64l0.47-0.41l0.47,0.54
			l-1.14,1L66.22,71.2z M70.85,73.65c-0.1-0.09-0.26-0.14-0.45,0.03c-0.19,0.17-0.18,0.33-0.1,0.46l-0.35,0.31
			c-0.28-0.34-0.3-0.75,0.13-1.13c0.45-0.39,0.84-0.31,1.14,0.01L70.85,73.65z"/>
		<path class="st0" d="M66.34,75.78l-2.23-3.4l0.77-0.51l2.23,3.4L66.34,75.78z"/>
	</g>
	<g>
		<path class="st0" d="M49.94,77.64c-0.65,0-1.18,0.53-1.18,1.18c0,0.65,0.53,1.18,1.18,1.18c0.65,0,1.18-0.53,1.18-1.18
			C51.12,78.17,50.59,77.64,49.94,77.64z"/>
	</g>
	<g>
		<g>
			<g>
				<path class="st0" d="M47.73,64.12c-0.04,0.04-0.07,0.1-0.08,0.16c-0.06,0.58,0.23,1.09,0.88,1.54c0.21,0.14,0.79,0.48,1.74,1.05
					c0.63,0.37,0.62,0.95-0.04,1.73c0.12,0.14,0.27,0.28,0.45,0.41c0.57-0.42,0.96-0.9,1.17-1.45c0.41-0.91-0.12-1.62-1.58-2.13
					c-0.61-0.21-0.94-0.41-1.01-0.62c-0.04-0.12-0.01-0.23,0.09-0.31C48.63,64.4,48.1,64.27,47.73,64.12z"/>
			</g>
			<g>
				<path class="st0" d="M50.3,64.64l-0.68-0.11c-0.01,0.31,0.09,0.54,0.38,0.6C50.32,65.08,50.25,64.92,50.3,64.64z"/>
			</g>
			<g>
				<path class="st0" d="M49.27,47.01l0.14,8.27l1.04,0.34l0.17-8.6c0.69-0.27,1.19-0.94,1.19-1.73c0-0.92-0.68-1.68-1.56-1.83
					c-0.09-0.02-0.19-0.03-0.29-0.03c0,0,0,0-0.01,0c0,0,0,0-0.01,0c-0.02,0-0.05,0.01-0.07,0.01c-0.09,0-0.18,0.01-0.27,0.03
					c-0.07,0.01-0.13,0.03-0.19,0.05c-0.04,0.01-0.08,0.02-0.12,0.04c-0.08,0.03-0.16,0.07-0.24,0.11
					c-0.01,0.01-0.02,0.01-0.03,0.02c-0.56,0.32-0.94,0.92-0.94,1.61C48.09,46.07,48.58,46.73,49.27,47.01z"/>
			</g>
			<g>
				<polygon class="st0" points="50.42,58.04 49.48,57.78 49.48,59.2 50.37,59.45 				"/>
			</g>
			<g>
				<path class="st0" d="M51.69,56.41l-2.85-0.81c-1.4-0.4-2.45-0.92-3.13-1.57c-0.57-0.63-0.71-1.17-0.43-1.63
					c0.28-0.43,0.75-0.55,1.41-0.37c1.5,0.42,2.24,0.45,2.21,0.09c-0.03-0.37-0.25-0.8-0.67-1.31c-0.43-0.51-1.08-0.8-1.94-0.87
					c-0.83,0.03-1.58,0.45-2.25,1.27c-0.75,0.92-0.85,1.94-0.31,3.08c0.74,1.13,1.98,1.99,3.7,2.58l3.82,0.99
					c0.87,0.21,1.3,0.43,1.29,0.67c0.03,0.19-0.59,0.51-1.88,0.96c0.29,0.09,0.55,0.18,0.8,0.27c0.24,0.09,0.48,0.19,0.69,0.3
					c0.22,0.11,0.39,0.2,0.51,0.27c0.96-0.45,1.51-1,1.66-1.65C54.52,57.8,53.65,57.04,51.69,56.41z"/>
			</g>
			<g>
				<path class="st0" d="M55.97,51.22c-0.67-0.82-1.42-1.24-2.25-1.27c-0.86,0.07-1.51,0.36-1.94,0.87
					c-0.42,0.51-0.65,0.94-0.67,1.31c-0.03,0.37,0.71,0.34,2.22-0.09c0.65-0.18,1.12-0.06,1.4,0.37c0.29,0.46,0.15,1-0.43,1.63
					c-0.69,0.65-1.73,1.17-3.13,1.57l-0.36,0.14c0.87,0.2,1.73,0.47,2.56,0.82c0.02,0,0.03-0.01,0.05-0.01
					c1.3-0.57,2.25-1.32,2.87-2.26C56.82,53.16,56.72,52.13,55.97,51.22z"/>
			</g>
			<g>
				<path class="st0" d="M52.66,60.78c-0.58-0.39-1.61-0.81-3.11-1.26c-1.49-0.45-2.07-0.7-2.07-0.94
					c-0.02-0.33,0.35-0.45,1.28-0.68l0.43-0.11c-0.86-0.17-1.68-0.4-2.45-0.68c-0.85,0.48-1.2,1.01-1.07,1.6
					c0.15,0.66,0.73,1.22,1.73,1.68c1.15,0.45,2.21,0.82,3.18,1.09c0.97,0.27,1.32,0.52,1.33,0.78c0,0.19-0.43,0.43-1.17,0.62
					c0.87,0.11,1.46,0.4,1.77,0.86c0.67-0.31,1.02-0.76,1.05-1.34C53.53,61.71,53.23,61.17,52.66,60.78z"/>
			</g>
			<g>
				<path class="st0" d="M49.65,69.63c-0.08,0.58,0.08,2.8,0.3,3.25c0.27-0.71,0.21-2.15,0.2-2.96L49.65,69.63z"/>
			</g>
			<g>
				<path class="st0" d="M49.61,66.94l-0.16-0.11c-0.58-0.36-0.9-0.58-0.97-0.65c-0.44,0.41-0.53,0.89-0.28,1.45
					c0.4,1.04,1.74,2.11,4.03,3.21C49.73,68.86,48.85,67.56,49.61,66.94z"/>
			</g>
			<g>
				<path class="st0" d="M49.92,68.23c0.34-0.45,0.48-0.86-0.13-1.2C49.74,67.43,49.44,67.79,49.92,68.23z"/>
			</g>
			<g>
				<polygon class="st0" points="50.37,61.76 49.54,61.51 49.58,62.63 50.32,62.78 				"/>
			</g>
			<g>
				<path class="st0" d="M50.25,63.06c-1.38-0.27-2.15-0.52-2.16-0.78c0-0.22,0.16-0.27,0.59-0.48c0.42-0.21,0.67-0.32,0.73-0.34
					l-1.98-0.76c-0.02,0.01-0.05,0.03-0.07,0.05c0,0-0.01,0-0.03,0.01c0,0-0.01,0-0.01,0.01c-0.56,0.38-0.86,0.91-0.88,1.59
					c0.03,0.68,0.5,1.17,1.42,1.49c0.33,0.11,0.72,0.21,1.15,0.28l1.34,0.21c0.39,0.1,0.55,0.26,0.48,0.47
					c-0.03,0.12-0.16,0.23-0.37,0.35c0.1,0.03,0.2,0.07,0.3,0.1c0.1,0.03,0.19,0.07,0.28,0.12c0.09,0.04,0.17,0.08,0.26,0.13
					c0.08,0.05,0.14,0.09,0.18,0.12c0.04,0.03,0.09,0.08,0.16,0.15c0.6-0.46,0.84-0.96,0.71-1.51
					C52.31,63.69,51.61,63.28,50.25,63.06z"/>
			</g>
		</g>
		<g>
			<g>
				<g>
					<path class="st0" d="M45.43,37c0-1.65,0.89-3.09,2.22-3.88c-0.79,0.66-1.29,1.64-1.29,2.75c0,1.97,1.6,3.58,3.58,3.58
						c1.97,0,3.58-1.6,3.58-3.58c0-1.11-0.5-2.09-1.29-2.75c1.33,0.78,2.22,2.23,2.22,3.88c0,2.49-2.02,4.5-4.5,4.5
						C47.44,41.5,45.43,39.48,45.43,37"/>
				</g>
				<g>
					<polygon class="st0" points="47.82,31.7 49.13,30.73 48.61,29.19 49.93,30.14 51.23,29.17 50.74,30.72 52.06,31.66 
						50.44,31.67 49.95,33.22 49.44,31.68 					"/>
				</g>
			</g>
		</g>
		<g>
			<path class="st0" d="M46.24,45.81c0.91-6.57-11.01-2.88-17.75-4.16c0.22,4.89,11.93,1.31,14.8,2.49
				c-2.78,0.32-8.87,1.21-13.08,1.42c0.02,4.41,11.14-0.75,13.46-0.05c-2.9,0.93-5.33,1.97-10.46,3.11
				c1.61,4.05,8.66-1.87,10.62-1.69c-2.5,1.44-3.79,2.48-7.36,4.08c2.25,2.02,6.01-1.71,7.25-2.45c0.36-0.21,0.8-0.62,1.25-0.32
				l0.01,0c1.03,0.71,2.91,1.24,3.44,0.22C47.63,48.4,45.83,47.5,46.24,45.81z"/>
		</g>
		<g>
			<path class="st0" d="M53.65,45.81c-0.91-6.57,11.01-2.88,17.75-4.16c-0.22,4.89-11.93,1.31-14.8,2.49
				c2.78,0.32,8.87,1.21,13.08,1.42c-0.02,4.41-11.14-0.75-13.46-0.05c2.9,0.93,5.33,1.97,10.46,3.11
				c-1.61,4.05-8.66-1.87-10.62-1.69c2.5,1.44,3.79,2.48,7.36,4.08c-2.25,2.02-6.01-1.71-7.25-2.45c-0.36-0.21-0.8-0.62-1.25-0.32
				l-0.01,0c-1.03,0.71-2.91,1.24-3.44,0.22C52.26,48.4,54.06,47.5,53.65,45.81z"/>
		</g>
	</g>
</g>
</svg>
